# xmcd
#
# Track frame offsets: 
#        150
#        20105
#        45638
#        62584
#        79304
#        97811
#        116635
#        135066
#        151697
#        166005
#        188782
#        211186
#        229794
#        249659
#        264139
#        281969
#
# Disc length: 3969 seconds
#
# Revision: 0
# Processed by: cddbd v1.5.2PL0 Copyright (c) Steve Scherf et al.
# Submitted via: ExactAudioCopy v1.1
#
DISCID=c90f7f10
DTITLE=Killer Mike - Underground Atlanta
DYEAR=2009
DGENRE=Hip-Hop
TTITLE0=Intro (Live) [Live]
TTITLE1=Oh Yeah (Live) [Live]
TTITLE2=I'mma Fool Wit It
TTITLE3=Bunkin' (Live) [Live]
TTITLE4=In The Kitchen
TTITLE5=Ham (Live) [Live]
TTITLE6=Bowling (Live) [Live]
TTITLE7=Hold Up (Live) [Live]
TTITLE8=Stuntin' Like A… (Live) [Live]
TTITLE9=Put On (Live) [Live]
TTITLE10=Choosey Lady (Live) [Live]
TTITLE11=Don't Do It Like Dat (Live) [Live]
TTITLE12=Charge It (Live) [Live]
TTITLE13=Freaky Girls (Live) [Live]
TTITLE14=I Be Off Dat (Live) [Live]
TTITLE15=2 Sides
EXTD=
EXTT0=
EXTT1=
EXTT2=
EXTT3=
EXTT4=
EXTT5=
EXTT6=
EXTT7=
EXTT8=
EXTT9=
EXTT10=
EXTT11=
EXTT12=
EXTT13=
EXTT14=
EXTT15=
PLAYORDER=
